<svg width="48" height="48" viewBox="0 0 48 48" fill="none" xmlns="http://www.w3.org/2000/svg">
<g clip-path="url(#clip0_927_277)">
<path d="M6.19266 29.4529L6.19267 29.4602L6.19479 29.4673C8.7319 37.8658 14.0366 43.8325 22.7754 47.5734C22.8196 47.5923 22.8831 47.621 22.9592 47.6553C22.9823 47.6657 23.0065 47.6767 23.0317 47.688C23.1394 47.7365 23.2638 47.792 23.3875 47.8444C23.511 47.8967 23.6347 47.9463 23.7409 47.9829C23.8447 48.0186 23.9392 48.0446 24.0009 48.0446C24.0623 48.0446 24.1566 48.0186 24.2604 47.9829C24.3665 47.9464 24.4902 47.8969 24.6137 47.8446C24.7374 47.7922 24.8617 47.7368 24.9694 47.6884C24.9949 47.6769 25.0195 47.6658 25.0428 47.6553C25.1184 47.6212 25.1816 47.5927 25.2254 47.574C33.9592 43.8362 39.2737 37.863 41.8061 29.4676L41.8082 29.4605L41.8082 29.4532L41.8324 9.38366V9.3836C41.8324 9.25284 41.8023 9.144 41.7404 9.0554C41.6787 8.96702 41.5883 8.90322 41.4756 8.85689C41.2526 8.7653 40.9298 8.73745 40.528 8.72956C40.3237 8.72555 40.0974 8.7267 39.8505 8.72795C39.1197 8.73166 38.2083 8.73628 37.1509 8.61067C34.3269 8.27523 30.4689 7.01034 26.3419 2.30221C26.0048 1.91769 25.7222 1.58121 25.4802 1.29252L25.4486 1.25482C25.2207 0.983005 25.0289 0.754171 24.862 0.569325C24.6877 0.376272 24.5383 0.228691 24.401 0.129256C24.2634 0.0295534 24.1339 -0.0246094 24.0003 -0.0246094C23.8667 -0.0246094 23.7373 0.0295537 23.5996 0.129257C23.4623 0.228692 23.313 0.376274 23.1387 0.569326C22.9718 0.754164 22.78 0.982987 22.5522 1.25479L22.5206 1.29252C22.2786 1.58121 21.996 1.91769 21.659 2.30221L21.6966 2.33517L21.659 2.30221C17.5318 7.01048 13.6739 8.27537 10.85 8.61078C9.79264 8.73637 8.88126 8.73173 8.15045 8.72801C7.9036 8.72675 7.67734 8.7256 7.47302 8.7296C7.07131 8.73748 6.74855 8.76531 6.52556 8.8569C6.41278 8.90323 6.32246 8.96702 6.26071 9.0554C6.19881 9.144 6.16875 9.25284 6.16875 9.3836L6.16875 9.38366L6.19266 29.4529ZM7.39319 29.1993V9.98234L9.24021 9.94125C14.3559 9.82838 18.5953 7.6548 22.5804 3.10951L22.5428 3.07654L22.5804 3.1095L24.0006 1.48936L25.4207 3.1095L25.4583 3.07654L25.4207 3.10951C29.4058 7.65452 33.6453 9.82838 38.7604 9.94125L40.6074 9.98234V29.1996L40.5268 29.4668C38.1431 37.368 32.9824 42.9217 24.7436 46.4479L24.0008 46.766L23.2572 46.4476C14.8057 42.8295 9.84102 37.2876 7.39319 29.1993Z" fill="white" stroke="white" stroke-width="0.1"/>
<path d="M8.69489 29.0831L8.6949 29.0905L8.69702 29.0975C10.9652 36.6157 15.895 41.9075 23.7606 45.2743C23.8372 45.307 23.9193 45.3236 24.0014 45.3236H24.0016C24.0837 45.3236 24.1658 45.3071 24.2419 45.2742C32.1075 41.908 37.0369 36.616 39.3054 29.0978L39.3075 29.0908L39.3075 29.0834L39.3317 11.8298V11.8297C39.3317 11.4971 39.0653 11.2251 38.7327 11.2178C33.2374 11.0961 28.7033 8.78948 24.4614 3.9507C24.228 3.68414 23.7736 3.68414 23.5402 3.9507C19.2983 8.7892 14.7647 11.0958 9.26945 11.2175C8.93656 11.2249 8.6707 11.4965 8.6707 11.8294L8.6707 11.8295L8.69489 29.0831ZM38.1067 28.8295C35.9617 35.8561 31.3479 40.835 24.0014 44.0434C16.6551 40.835 12.041 35.8564 9.89571 28.8295V12.4195C15.2272 12.1465 19.854 9.80005 24.0014 5.27137C28.1487 9.79978 32.7749 12.1462 38.1067 12.4195V28.8295Z" fill="white" stroke="white" stroke-width="0.1"/>
<path d="M20.3815 34.9908L20.3816 34.9909C20.4791 35.0675 20.594 35.1108 20.7109 35.1205V35.1228H20.7609C20.9448 35.1228 21.1398 35.0329 21.2601 34.8747C21.3822 34.7144 21.4245 34.4882 21.3096 34.2245C20.6563 32.2977 21.0949 30.7453 21.8167 29.5945C22.5264 28.4629 23.5102 27.7194 24.0008 27.3945C24.4964 27.7204 25.4914 28.4688 26.202 29.6124C26.9248 30.7756 27.3538 32.3482 26.6617 34.3066L26.6617 34.3066C26.4598 34.8793 27.1404 35.3685 27.6184 34.9914C31.8849 31.6278 31.9155 27.2286 31.3709 23.6867C32.7636 22.6708 33.5834 21.0703 33.5834 19.3283C33.5834 14.5182 27.9277 12.3875 24.666 15.215C24.3103 15.5233 24.0638 15.5895 23.8406 15.5357C23.7263 15.5081 23.6134 15.448 23.4909 15.3636C23.3876 15.2923 23.28 15.2057 23.1604 15.1092C23.138 15.0912 23.1151 15.0727 23.0918 15.054C22.7974 14.8177 22.435 14.5395 21.9245 14.3209C21.4138 14.1022 20.757 13.9441 19.8733 13.9441C14.5443 13.9441 12.4462 20.6391 16.629 23.6861C16.0844 27.2281 16.1153 31.6269 20.3815 34.9908ZM30.3815 22.8774L30.3815 22.8774C30.1702 23.0085 30.059 23.2538 30.1003 23.4988C30.7921 27.6291 30.2272 30.5002 28.2245 32.7544C28.3386 30.7589 27.4422 29.1026 26.4454 27.9395C25.9347 27.3437 25.3968 26.8761 24.9523 26.5572C24.7301 26.3977 24.5307 26.275 24.3691 26.1919C24.2884 26.1503 24.2165 26.1183 24.1554 26.0966C24.0955 26.0753 24.0422 26.0624 24.0001 26.0624H23.9998C23.9577 26.0624 23.9043 26.0753 23.8443 26.0966C23.7832 26.1183 23.7113 26.1503 23.6305 26.1919C23.4689 26.2751 23.2694 26.3978 23.0471 26.5573C22.6026 26.8764 22.0647 27.344 21.5541 27.9399C20.5574 29.103 19.6613 30.7592 19.7755 32.7538C17.7724 30.4994 17.2078 27.6285 17.8996 23.4983C17.9406 23.2532 17.8294 23.0079 17.6185 22.8769L17.6184 22.8769C16.3804 22.1089 15.6415 20.7825 15.6415 19.3281C15.6415 17.4132 16.7528 16.0877 18.1701 15.5044C19.5892 14.9204 21.3117 15.0819 22.531 16.1402C23.0953 16.6299 23.5514 16.8195 23.9663 16.8183C24.38 16.8172 24.742 16.6262 25.1159 16.3812C25.2185 16.3139 25.3224 16.2424 25.429 16.169C26.1018 15.7059 26.8809 15.1694 28.1266 15.1694C32.5058 15.1694 33.8821 20.7069 30.3815 22.8774Z" fill="white" stroke="white" stroke-width="0.1"/>
<path d="M21.532 17.7532L21.532 17.7532C21.6498 17.6174 21.7677 17.5452 21.8908 17.5269C22.0134 17.5087 22.1319 17.5454 22.248 17.6083C22.3637 17.6709 22.4823 17.7624 22.6059 17.8606C22.6214 17.8729 22.637 17.8853 22.6527 17.8978C22.7633 17.986 22.8792 18.0784 23.0051 18.1638C23.2916 18.3581 23.624 18.5121 24.0403 18.4845C24.4573 18.4568 24.9673 18.2462 25.6065 17.6919L25.6065 17.6919C25.7568 17.5616 25.9221 17.519 26.0759 17.54C26.2285 17.5609 26.3661 17.6438 26.4651 17.7579C26.564 17.8721 26.6266 18.02 26.6256 18.174C26.6246 18.3293 26.5589 18.4868 26.4086 18.6172L26.4086 18.6172C25.5883 19.3281 24.796 19.7326 24.0015 19.7327L21.532 17.7532ZM21.532 17.7532C21.4331 17.8674 21.3835 17.9877 21.3782 18.111C21.3729 18.2335 21.4116 18.354 21.4801 18.4689C21.6163 18.6972 21.8758 18.9128 22.1779 19.0978C22.4812 19.2836 22.8328 19.442 23.1596 19.554C23.4852 19.6655 23.7907 19.7327 24.0012 19.7327L21.532 17.7532Z" fill="white" stroke="white" stroke-width="0.1"/>
</g>
<defs>
<clipPath id="clip0_927_277">
<rect width="48" height="48" rx="21" fill="white"/>
</clipPath>
</defs>
</svg>
