<svg width="48" height="48" viewBox="0 0 48 48" fill="none" xmlns="http://www.w3.org/2000/svg">
<path d="M41.2976 4.25101C40.1426 3.21901 38.8248 2.37901 37.3878 1.79851C35.9156 1.20376 34.3421 0.88726 32.7581 0.81076C32.4761 0.79726 32.1933 0.79126 31.9113 0.79126C30.4331 0.79501 28.9151 1.17901 27.5193 1.90276C25.3173 3.04501 22.6901 3.04426 20.4888 1.90276C19.0931 1.17901 17.5743 0.79501 16.0968 0.79126C14.5061 0.79126 12.9161 1.00876 11.4033 1.51126C9.93332 1.99951 8.55782 2.75026 7.34582 3.71401C7.12982 3.88576 6.91757 4.06501 6.71132 4.25026C3.65057 6.99301 2.01707 11.0925 2.22932 15.5003C2.43407 19.4895 3.75182 24.8228 8.73407 27.981C8.70557 29.0903 8.68307 30.2318 8.76107 31.386C8.81432 32.088 8.87507 32.8838 8.99957 33.6743C9.67457 38.0408 11.0066 42.9225 15.7661 46.0208C16.9083 46.764 18.7556 47.841 20.0043 46.6695C20.8758 45.8513 21.0941 44.376 21.1556 43.2398C21.1578 43.1865 21.4466 38.2965 24.0386 33.4635C25.0856 35.1908 26.7236 38.6258 27.3033 43.8893C27.4661 45.3668 28.1028 47.2095 29.8938 47.2095C30.8261 47.2095 31.6706 46.6935 32.0066 46.4888C34.8251 44.769 36.7916 42.4305 38.0186 39.3413C39.4833 35.6678 39.6273 32.0948 39.3386 27.9465C44.2908 24.7703 45.5831 19.4633 45.7691 15.492C45.9926 11.0858 44.3621 6.98851 41.2976 4.25101ZM29.7438 23.5523C28.4658 22.653 26.6861 21.651 24.6438 20.9048C24.1968 20.7413 23.7971 20.6273 23.3583 20.9048C21.3213 21.6488 19.5453 22.647 18.2688 23.5448C18.0468 20.6153 17.1888 17.6595 16.3923 15.5145L21.7143 16.896C23.3658 17.3258 25.1096 17.3153 26.7551 16.866L31.5911 15.5063C30.8133 17.6745 29.9628 20.628 29.7438 23.5523ZM24.7931 30.6345C24.5583 30.3743 24.2193 30.2385 23.8676 30.2663C23.5188 30.294 23.2023 30.483 23.0126 30.7778C19.2971 36.5318 18.9243 42.8543 18.9108 43.119C18.9101 43.1273 18.9086 43.1348 18.9086 43.143C15.9671 36.0803 17.7963 28.0328 18.1848 26.5193C18.6123 26.004 20.9201 24.2183 24.0011 23.0655C27.1286 24.2355 29.4618 26.0603 29.8376 26.5433C30.2838 28.0125 32.5271 36.2213 29.5038 43.3613C28.4966 34.842 24.9461 30.8025 24.7931 30.6345ZM16.8303 44.019C12.9483 41.3933 11.8128 37.1498 11.2218 33.3255C11.1108 32.622 11.0538 31.8735 11.0043 31.2225C10.9278 30.1013 10.9571 28.9845 10.9878 27.8003C11.0043 27.1298 10.9293 26.676 10.3128 26.3175C5.82107 23.7083 4.65707 18.9353 4.47482 15.3855C4.29557 11.661 5.65682 8.21176 8.21132 5.92276C9.75107 4.54276 11.6396 3.62176 13.6728 3.24826C15.6468 2.88601 17.6433 2.95951 19.4516 3.89701C22.3008 5.37451 25.7036 5.37526 28.5536 3.89701C29.6321 3.33751 30.7946 3.04051 31.9158 3.03826C33.4916 3.03826 35.0658 3.29176 36.5313 3.88126C37.7298 4.36351 38.8346 5.06176 39.7961 5.92426C42.3513 8.20726 43.7103 11.652 43.5228 15.3788C43.3563 18.9518 42.1968 23.7548 37.6241 26.3685C37.2873 26.5613 37.0151 27.03 37.0526 27.4418C37.3803 31.5735 37.3143 35.0355 35.9298 38.5073C35.0163 40.8075 33.6206 42.615 31.6796 44.0078C33.8831 38.6355 33.7338 32.3828 32.2608 26.8343C31.3518 23.4113 32.5428 19.518 33.7076 16.2653C33.9873 15.4845 33.8111 14.622 33.2478 14.0115C32.6786 13.398 31.8236 13.1528 31.0203 13.3718L26.1618 14.694C24.8936 15.039 23.5511 15.0473 22.2776 14.7173L16.9556 13.3358C16.1523 13.1265 15.3048 13.3785 14.7446 13.992C14.1881 14.6018 14.0156 15.4613 14.2938 16.236C15.4053 19.3328 16.6053 22.7985 15.9513 26.1263C15.5126 28.3568 15.1091 30.543 15.0176 32.8253C14.9448 34.6433 15.0191 36.4695 15.2763 38.271C15.4848 39.729 15.8178 41.1855 16.2881 42.582C16.2881 42.582 16.6211 43.761 16.8303 44.019Z" fill="white" stroke="#25B4F8" stroke-width="0.7"/>
</svg>
