<svg width="207" height="225" viewBox="0 0 207 225" fill="none" xmlns="http://www.w3.org/2000/svg">
<path d="M178.212 134.149L179.834 135.319L178.212 134.149ZM38.0002 142.042L37.06 140.277L38.0002 142.042ZM-108.73 216.337C-109.758 216.74 -110.265 217.9 -109.862 218.929L-103.297 235.689C-102.894 236.717 -101.734 237.224 -100.706 236.822C-99.6772 236.419 -99.17 235.258 -99.5729 234.23L-105.408 219.332L-90.5106 213.496C-89.4821 213.094 -88.975 211.933 -89.3778 210.905C-89.7807 209.876 -90.9411 209.369 -91.9695 209.772L-108.73 216.337ZM179.122 2.83737C191.316 25.8468 200.536 44.5217 201.85 64.3433C203.156 84.0357 196.656 105.166 176.59 132.979L179.834 135.319C200.226 107.054 207.229 85.0141 205.841 64.0787C204.462 43.2723 194.791 23.862 182.656 0.964294L179.122 2.83737ZM176.59 132.979C147.911 172.732 103.406 180.112 71.0079 174.78C54.7513 172.104 41.8928 166.281 35.6749 160.075C32.5688 156.975 31.4027 154.082 31.7509 151.624C32.0968 149.182 34.0463 146.414 38.9404 143.807L37.06 140.277C31.6317 143.168 28.3927 146.811 27.7904 151.063C27.1905 155.298 29.3164 159.38 32.8491 162.906C39.9086 169.953 53.714 175.987 70.3584 178.727C103.763 184.224 150.009 176.661 179.834 135.319L176.59 132.979ZM38.9404 143.807C46.2513 139.913 51.9547 139.543 56.1141 141.178C60.2684 142.811 63.3824 146.642 65.0991 152.234C68.5534 163.486 66.0139 181.022 55.7704 197.295C45.5826 213.48 27.8632 228.243 1.26047 234C-25.3669 239.761 -61.0651 236.531 -107.199 216.367L-108.801 220.032C-62.1398 240.427 -25.5681 243.897 2.10638 237.909C29.8055 231.916 48.42 216.481 59.1555 199.426C69.8353 182.46 72.8087 163.717 68.9229 151.06C66.9695 144.697 63.2003 139.666 57.5777 137.455C51.9603 135.247 44.9934 136.051 37.06 140.277L38.9404 143.807Z" fill="white"/>
</svg>
