<svg width="184" height="132" viewBox="0 0 184 132" fill="none" xmlns="http://www.w3.org/2000/svg">
<path d="M169.967 77.1328L171.635 78.2376L169.967 77.1328ZM86.1022 73.6405L85.2594 71.8267L86.1022 73.6405ZM2.18768 109.419C1.13489 109.753 0.552388 110.878 0.886618 111.93L6.3333 129.087C6.66754 130.139 7.79194 130.722 8.84473 130.388C9.89751 130.053 10.48 128.929 10.1458 127.876L5.30429 112.626L20.5542 107.785C21.607 107.451 22.1895 106.326 21.8553 105.273C21.521 104.221 20.3966 103.638 19.3438 103.972L2.18768 109.419ZM162.034 -2.12622C170.744 12.615 177.333 24.4323 179.274 36.431C181.187 48.2533 178.603 60.4804 168.3 76.028L171.635 78.2376C182.348 62.0707 185.333 48.8396 183.223 35.7923C181.141 22.9214 174.116 10.4578 165.478 -4.16105L162.034 -2.12622ZM168.3 76.028C153.788 97.9267 128.045 99.8897 108.317 94.7498C98.4558 92.1807 90.4643 87.9153 86.4243 83.8402C84.3702 81.7683 83.6498 80.0682 83.7006 78.8977C83.7428 77.9276 84.3678 76.6516 86.9449 75.4543L85.2594 71.8267C81.9531 73.3629 79.8367 75.6793 79.7044 78.724C79.5808 81.5684 81.253 84.3054 83.5837 86.6564C88.3133 91.4271 97.0604 95.9507 107.308 98.6206C127.798 103.959 155.754 102.201 171.635 78.2376L168.3 76.028ZM86.9449 75.4543C90.8607 73.635 94.0015 73.7505 96.4142 74.9024C98.8809 76.0801 100.924 78.5026 102.255 81.9237C104.93 88.7952 104.444 99.0416 99.3937 108.069C94.3982 116.997 84.9249 124.736 69.569 126.626C54.1343 128.526 32.6205 124.525 3.71284 109.549L1.87288 113.101C31.1768 128.282 53.5268 132.631 70.0576 130.596C86.6673 128.552 97.2612 120.072 102.884 110.022C108.452 100.07 109.137 88.5774 105.983 80.4728C104.4 76.4058 101.779 73.0311 98.1376 71.2927C94.4426 69.5286 90.0322 69.6093 85.2594 71.8267L86.9449 75.4543Z" fill="white"/>
</svg>
