<svg width="323" height="552" viewBox="0 0 323 552" fill="none" xmlns="http://www.w3.org/2000/svg">
<path d="M47.2669 497.183L48.3463 498.867L47.2669 497.183ZM86.198 171.257L84.4922 170.213L86.198 171.257ZM283.305 -160.842C283.77 -161.844 284.959 -162.279 285.961 -161.814L302.289 -154.237C303.29 -153.772 303.726 -152.583 303.261 -151.581C302.796 -150.579 301.607 -150.144 300.605 -150.609L286.091 -157.344L279.356 -142.831C278.891 -141.829 277.702 -141.393 276.7 -141.858C275.698 -142.323 275.263 -143.512 275.728 -144.514L283.305 -160.842ZM-260.399 485.896C-208.616 517.032 -165.963 541.081 -119.296 546.592C-72.754 552.088 -21.91 539.157 46.1875 495.499L48.3463 498.867C-20.2125 542.82 -71.9875 556.206 -119.765 550.564C-167.418 544.937 -210.784 520.395 -262.46 489.324L-260.399 485.896ZM46.1875 495.499C144.184 432.674 168.097 328.637 160.343 251.801C156.46 213.321 144.667 182.017 130.591 166.197C123.558 158.294 116.24 154.552 109.265 155.176C102.296 155.801 94.9127 160.852 87.9037 172.301L84.4922 170.213C91.812 158.256 100.134 151.978 108.908 151.192C117.676 150.407 126.136 155.173 133.579 163.539C148.455 180.257 160.401 212.53 164.323 251.399C172.18 329.259 147.969 434.999 48.3463 498.867L46.1875 495.499ZM87.9037 172.301C77.5037 189.29 75.4654 203.372 78.9877 214.249C82.5065 225.116 91.7442 233.306 105.028 238.159C131.667 247.89 173.745 243.822 213.669 221.616C253.502 199.461 291.005 159.337 308.525 97.2795C326.051 35.2002 323.624 -48.9966 283.241 -159.312L286.997 -160.688C327.58 -49.8242 330.19 35.2593 312.374 98.3663C294.552 161.495 256.333 202.463 215.613 225.112C174.986 247.709 131.681 252.154 103.656 241.916C89.6074 236.783 79.1926 227.866 75.1823 215.482C71.1754 203.107 73.7313 187.791 84.4922 170.213L87.9037 172.301Z" fill="white"/>
</svg>
