<svg width="108" height="98" viewBox="0 0 108 98" fill="none" xmlns="http://www.w3.org/2000/svg">
<path d="M78.0432 14.5136C79.4354 12.8605 79.2321 10.3776 77.4733 9.12169C69.5751 3.4822 60.1521 0.297244 50.3925 0.019789C39.3248 -0.294853 28.4768 3.14817 19.6163 9.78778C10.7558 16.4274 4.40522 25.8721 1.59942 36.5829C-1.20638 47.2936 -0.301971 58.6389 4.16527 68.7698C8.63251 78.9008 16.3992 87.2202 26.1997 92.3722C36.0002 97.5242 47.2566 99.2051 58.1347 97.141C69.0127 95.0769 78.871 89.3895 86.1031 81.0056C92.4804 73.6126 96.484 64.5072 97.6469 54.8722C97.9059 52.7266 96.2097 50.9019 94.0502 50.8149C91.8908 50.7279 90.0888 52.4128 89.7973 54.5543C88.7264 62.4205 85.3986 69.8402 80.1769 75.8936C74.1 82.9384 65.8162 87.7174 56.6756 89.4518C47.5351 91.1862 38.0765 89.7738 29.8414 85.4446C21.6063 81.1155 15.0801 74.125 11.3264 65.6122C7.57268 57.0993 6.81272 47.5662 9.17037 38.5662C11.528 29.5662 16.8643 21.63 24.3096 16.0509C31.7548 10.4718 40.8701 7.57866 50.17 7.84304C58.1612 8.07022 65.8838 10.6172 72.414 15.1318C74.1917 16.3608 76.6511 16.1667 78.0432 14.5136Z" fill="#011632"/>
<path d="M98.0005 15.2948L50.0981 63.4451L28.3242 41.5586" stroke="#011632" stroke-width="20" stroke-linecap="round" stroke-linejoin="round"/>
</svg>
