<svg width="160" height="160" viewBox="0 0 160 160" fill="none" xmlns="http://www.w3.org/2000/svg">
<circle cx="80.0006" cy="60" r="26.6667" fill="#011632"/>
<circle cx="113.334" cy="60" r="20" fill="#011632"/>
<circle cx="46.666" cy="60" r="20" fill="#011632"/>
<path fill-rule="evenodd" clip-rule="evenodd" d="M117.124 120H138.896C139.487 120 139.947 119.509 139.864 118.923C139.05 113.205 134.154 86.6666 113.334 86.6666C107.427 86.6666 102.801 88.8031 99.1875 91.9942C109.239 98.5156 114.436 109.935 117.124 120Z" fill="#011632"/>
<path fill-rule="evenodd" clip-rule="evenodd" d="M60.8131 91.9942C57.1992 88.8031 52.5738 86.6666 46.6666 86.6666C25.8467 86.6666 20.9501 113.205 20.1367 118.923C20.0534 119.509 20.5132 120 21.1048 120H42.877C45.5642 109.935 50.7614 98.5155 60.8131 91.9942Z" fill="#011632"/>
<path d="M79.9993 93.3334C110.192 93.3334 113.037 126.151 113.305 132.335C113.329 132.887 112.885 133.333 112.333 133.333H47.666C47.1137 133.333 46.67 132.887 46.6939 132.335C46.9619 126.151 49.8064 93.3334 79.9993 93.3334Z" fill="#011632"/>
</svg>
